<?xml version="1.0" encoding="utf-8"?>
<!-- Generator: Adobe Illustrator 15.0.0, SVG Export Plug-In  -->
<!DOCTYPE svg PUBLIC "-//W3C//DTD SVG 1.1//EN" "http://www.w3.org/Graphics/SVG/1.1/DTD/svg11.dtd" [
	<!ENTITY ns_flows "http://ns.adobe.com/Flows/1.0/">
]>
<svg version="1.1"
	 xmlns="http://www.w3.org/2000/svg" xmlns:xlink="http://www.w3.org/1999/xlink" xmlns:a="http://ns.adobe.com/AdobeSVGViewerExtensions/3.0/"
	 x="0px" y="0px" width="128px" height="128px" viewBox="-4 -24 128 128"
	 overflow="visible" enable-background="new -4 -24 128 128" xml:space="preserve">
<defs>
</defs>
<g>
	<path fill="none" stroke="#FFFFFF" stroke-width="2" stroke-linecap="round" stroke-linejoin="round" stroke-miterlimit="10" d="
		M1,1c9.764,0,9.764,70,19.528,70S30.292,1,40.056,1c9.765,0,9.765,70,19.529,70C69.35,71,69.35,1,79.116,1s9.766,70,19.531,70"/>
</g>
<g>
	<path fill="none" stroke="#FFFFFF" stroke-width="2" stroke-linecap="round" stroke-linejoin="round" stroke-miterlimit="10" d="
		M21.354,1c9.764,0,9.764,70,19.528,70S50.646,1,60.409,1c9.764,0,9.764,70,19.528,70c9.766,0,9.766-70,19.531-70S109.234,71,119,71
		"/>
</g>
</svg>
